<svg xmlns="http://www.w3.org/2000/svg" version="1.1" xmlns:xlink="http://www.w3.org/1999/xlink" xmlns:svgjs="http://svgjs.dev/svgjs" width="1500" height="1764" viewBox="0 0 1500 1764"><g transform="matrix(1,0,0,1,0.20785714285716494,0.7141700404857829)"><svg viewBox="0 0 210 247" data-background-color="#fbeaab" preserveAspectRatio="xMidYMid meet" height="1764" width="1500" xmlns="http://www.w3.org/2000/svg" xmlns:xlink="http://www.w3.org/1999/xlink"><g id="tight-bounds" transform="matrix(1,0,0,1,-0.02909999999999968,-0.09999999999999432)"><svg viewBox="0 0 210.0582 247.2" height="247.2" width="210.0582"><g><svg></svg></g><g><svg viewBox="0 0 210.0582 247.2" height="247.2" width="210.0582"><g transform="matrix(1,0,0,1,0,47.215199999999996)"><svg viewBox="0 0 210.0582 152.7696" height="152.7696" width="210.0582"><g><svg viewBox="0 0 210.0582 152.7696" height="152.7696" width="210.0582"><g><svg viewBox="0 0 210.0582 152.7696" height="152.7696" width="210.0582"><g><svg viewBox="0 0 210.0582 152.7696" height="152.7696" width="210.0582"><g id="textblocktransform"><svg viewBox="0 0 210.0582 152.7696" height="152.7696" width="210.0582" id="textblock"><g><svg viewBox="0 0 210.0582 152.7696" height="152.7696" width="210.0582"><g transform="matrix(1,0,0,1,0,0)"><svg width="210.0582" viewBox="1.25 -30.65 42.9 31.2" height="152.7696" data-palette-color="#454545"><path d="M10.75-7.6L10.75-14.45 14.8-14.45 14.8-7.4Q14.8-4.4 13.68-2.65 12.55-0.9 10.7-0.18 8.85 0.55 6.7 0.55L6.7 0.55Q3.9 0.55 2.58-0.13 1.25-0.8 1.25-1.9L1.25-1.9Q1.25-2.6 1.55-3.1 1.85-3.6 2.1-3.85L2.1-3.85Q2.85-3.5 3.93-3.2 5-2.9 6.1-2.9L6.1-2.9Q8.35-2.9 9.55-4 10.75-5.1 10.75-7.6L10.75-7.6ZM14.8-28.8L14.8-13.25 10.75-13.25 10.75-30.3Q11-30.4 11.53-30.53 12.05-30.65 12.6-30.65L12.6-30.65Q13.7-30.65 14.25-30.23 14.8-29.8 14.8-28.8L14.8-28.8ZM42.6-26.95L32.3-26.95 32.05-30.4 43.7-30.4Q43.85-30.2 44-29.75 44.15-29.3 44.15-28.8L44.15-28.8Q44.15-28 43.75-27.48 43.35-26.95 42.6-26.95L42.6-26.95ZM22.05-30.4L32.4-30.4 32.65-26.95 20.95-26.95Q20.8-27.2 20.65-27.65 20.5-28.1 20.5-28.6L20.5-28.6Q20.5-29.45 20.9-29.93 21.3-30.4 22.05-30.4L22.05-30.4ZM30.3-1.6L30.3-28.3 34.35-28.3 34.35-0.1Q34.1 0 33.57 0.13 33.05 0.25 32.5 0.25L32.5 0.25Q31.4 0.25 30.85-0.2 30.3-0.65 30.3-1.6L30.3-1.6Z" opacity="1" transform="matrix(1,0,0,1,0,0)" fill="#454545" class="wordmark-text-0" data-fill-palette-color="primary" id="text-0"></path></svg></g></svg></g></svg></g></svg></g><g></g></svg></g></svg></g></svg></g><path d="M0 41.215L0 1 210.058 1 210.058 41.215 196.281 41.215 196.281 14.777 13.777 14.777 13.777 41.215 0 41.215M0 205.985L0 246.2 210.058 246.2 210.058 205.985 196.281 205.985 196.281 232.423 13.777 232.423 13.777 205.985 0 205.985" fill="#454545" stroke="transparent" data-fill-palette-color="tertiary"></path></svg></g><defs></defs></svg><rect width="210.0582" height="247.2" fill="none" stroke="none" visibility="hidden"></rect></g></svg></g></svg>